<?xml version="1.0" encoding="UTF-8" standalone="no"?>
<svg
   xmlns:dc="http://purl.org/dc/elements/1.1/"
   xmlns:cc="http://creativecommons.org/ns#"
   xmlns:rdf="http://www.w3.org/1999/02/22-rdf-syntax-ns#"
   xmlns:svg="http://www.w3.org/2000/svg"
   xmlns="http://www.w3.org/2000/svg"
   xmlns:sodipodi="http://sodipodi.sourceforge.net/DTD/sodipodi-0.dtd"
   xmlns:inkscape="http://www.inkscape.org/namespaces/inkscape"
   viewBox="0 0 448 512"
   version="1.1"
   id="svg4"
   sodipodi:docname="flag-usa-solid.svg"
   inkscape:version="0.92.2 (5c3e80d, 2017-08-06)">
  <metadata
     id="metadata10">
    <rdf:RDF>
      <cc:Work
         rdf:about="">
        <dc:format>image/svg+xml</dc:format>
        <dc:type
           rdf:resource="http://purl.org/dc/dcmitype/StillImage" />
      </cc:Work>
    </rdf:RDF>
  </metadata>
  <defs
     id="defs8" />
  <sodipodi:namedview
     pagecolor="#ffffff"
     bordercolor="#000000"
     borderopacity="0.25"
     objecttolerance="10"
     gridtolerance="10"
     guidetolerance="10"
     inkscape:pageopacity="0"
     inkscape:pageshadow="2"
     inkscape:window-width="1920"
     inkscape:window-height="1017"
     id="namedview6"
     showgrid="false"
     inkscape:zoom="0.16296602"
     inkscape:cx="224"
     inkscape:cy="277.69492"
     inkscape:window-x="-8"
     inkscape:window-y="-8"
     inkscape:window-maximized="1"
     inkscape:current-layer="svg4" />
  <!--! Font Awesome Pro 6.4.2 by @fontawesome - https://fontawesome.com License - https://fontawesome.com/license (Commercial License) Copyright 2023 Fonticons, Inc. -->
  <path
     d="M 192 27.066406 C 172.41327 24.77093 152.43631 25.954457 133 30.800781 L 64 48 L 64 203.09961 L 127.5 189.40039 C 148.83908 184.84541 170.59208 183.69577 192 185.8457 L 192 121.90039 L 192 89.699219 L 192 27.066406 z M 144 64 A 16 16 0 0 1 144 96 A 16 16 0 0 1 144 64 z M 95.533203 80.005859 A 16 16 0 0 1 112 96 A 16 16 0 0 1 80 96 A 16 16 0 0 1 95.533203 80.005859 z M 144 112 A 16 16 0 0 1 144 144 A 16 16 0 0 1 144 112 z M 95.533203 128.00586 A 16 16 0 0 1 112 144 A 16 16 0 0 1 80 144 A 16 16 0 0 1 95.533203 128.00586 z "
     id="path839"
     style="fill:#0a3161;fill-opacity:1" />
  <path
     id="path846"
     d="m 64,235.80078 v 63.29883 l 63.5,-13.69922 c 43.1,-9.2 87.89961,-4.60117 128.09961,13.29883 l 16.09961,7.20117 c 41.6,18.5 88.80156,20.19961 131.60156,4.59961 L 448,294.30078 v -62 l -33.69922,12.29883 c -50.6,18.4 -106.40156,16.49961 -155.60156,-5.40039 L 242.59961,232 c -34.1,-15.2 -72.00039,-19.10078 -108.40039,-11.30078 z m 0,96 V 400 l 64.30078,-16 c 41.2,-10.3 84.6,-5.59961 122.5,13.40039 44.1,22 95.49922,24.70039 141.69922,7.40039 l 34.69922,-13 c 12.5,-4.7 20.80078,-16.7 20.80078,-30 v -33.5 l -33.69922,12.29883 c -50.6,18.4 -106.40156,16.49961 -155.60156,-5.40039 L 242.59961,328 c -34.1,-15.2 -72.00039,-19.10078 -108.40039,-11.30078 z M 192,27.066406 v 62.632813 c 21.8,2.2 43.29961,7.90039 63.59961,16.900391 l 16.09961,7.20117 c 41.6,18.5 88.80156,20.19961 131.60156,4.59961 L 448,102.19922 V 66.099609 C 448,43.099609 423.79922,28.1 403.19922,38.5 l -9.59961,4.800781 c -46.3,23.2 -100.79961,23.2 -147.09961,0 C 229.25691,34.679234 210.80813,29.270634 192,27.066406 Z m 0,94.833984 v 63.94531 c 21.83113,2.19244 43.30288,7.81592 63.59961,16.85352 l 16.09961,7.20117 c 41.6,18.5 88.80156,20.19961 131.60156,4.59961 L 448,198.30078 v -62 l -33.69922,12.09961 C 363.70078,166.80039 307.89922,164.9 258.69922,143 l -16.09961,-7.19922 C 226.39961,128.60078 209.4,124.00039 192,121.90039 Z"
     style="fill:#b31942;fill-opacity:1" />
  <path
     d="M 32 0 C 14.3 0 0 14.3 0 32 L 0 64 L 0 120.80078 L 0 153.5 L 0 216.80078 L 0 249.5 L 0 312.80078 L 0 345.5 L 0 416 L 0 480 C 0 497.7 14.3 512 32 512 C 49.7 512 64 497.7 64 480 L 64 436.06836 L 64 400 L 64 331.80078 L 64 299.09961 L 64 235.80078 L 64 211.39453 L 64 203.09961 L 64 48 L 64 32 C 64 14.3 49.7 0 32 0 z "
     id="path2" />
</svg>
